<svg width="48" height="48" viewBox="0 0 48 48" fill="none" xmlns="http://www.w3.org/2000/svg">
<g clip-path="url(#clip0_46_156)">
<path d="M24.0002 0.5625C10.747 0.5625 0 11.3075 0 24.5627C0 35.1666 6.87679 44.1629 16.4128 47.3364C17.6123 47.5586 18.0526 46.8158 18.0526 46.1819C18.0526 45.6096 18.0304 43.719 18.02 41.7135C11.3431 43.1654 9.93424 38.8818 9.93424 38.8818C8.84249 36.1077 7.26945 35.3701 7.26945 35.3701C5.09191 33.8805 7.43359 33.9111 7.43359 33.9111C9.84363 34.0804 11.1126 36.3843 11.1126 36.3843C13.2532 40.0535 16.7272 38.9927 18.0967 38.3795C18.3121 36.8283 18.9341 35.7695 19.6205 35.1702C14.2897 34.5633 8.6859 32.5054 8.6859 23.3092C8.6859 20.6889 9.62345 18.5479 11.1587 16.8672C10.9095 16.2627 10.088 13.8217 11.3912 10.5158C11.3912 10.5158 13.4066 9.87078 17.993 12.9759C19.9074 12.4442 21.9606 12.1775 24.0002 12.1683C26.0398 12.1775 28.0946 12.4442 30.0126 12.9759C34.5934 9.87078 36.606 10.5158 36.606 10.5158C37.9124 13.8217 37.0905 16.2627 36.8413 16.8672C38.3801 18.5479 39.3113 20.6889 39.3113 23.3092C39.3113 32.5273 33.6968 34.557 28.3525 35.1511C29.2133 35.8959 29.9804 37.3565 29.9804 39.5956C29.9804 42.8069 29.9526 45.3914 29.9526 46.1819C29.9526 46.8205 30.3846 47.5689 31.6011 47.3332C41.132 44.1562 48 35.163 48 24.5627C48 11.3075 37.2546 0.5625 24.0002 0.5625ZM8.98885 34.7513C8.936 34.8705 8.74841 34.9063 8.57751 34.8244C8.40344 34.7461 8.30567 34.5836 8.3621 34.4639C8.41377 34.3411 8.60175 34.307 8.77543 34.3892C8.94991 34.4675 9.04926 34.6317 8.98885 34.7513ZM10.1694 35.8047C10.0549 35.9108 9.83118 35.8615 9.67936 35.6938C9.52238 35.5265 9.49297 35.3027 9.60902 35.195C9.72706 35.0889 9.94405 35.1386 10.1014 35.3059C10.2584 35.4752 10.289 35.6974 10.1694 35.8047ZM10.9793 37.1524C10.8322 37.2546 10.5918 37.1588 10.4432 36.9454C10.2961 36.732 10.2961 36.476 10.4463 36.3735C10.5954 36.2709 10.8322 36.3631 10.9829 36.575C11.1295 36.792 11.1295 37.0479 10.9793 37.1524ZM12.349 38.7133C12.2175 38.8584 11.9373 38.8195 11.7322 38.6215C11.5223 38.428 11.4639 38.1534 11.5959 38.0083C11.729 37.8628 12.0108 37.9038 12.2175 38.1001C12.4257 38.2933 12.4893 38.5699 12.349 38.7133ZM14.1192 39.2403C14.0612 39.4283 13.7913 39.5137 13.5195 39.4338C13.248 39.3516 13.0704 39.1314 13.1252 38.9414C13.1817 38.7522 13.4527 38.6632 13.7266 38.7487C13.9976 38.8305 14.1757 39.0491 14.1192 39.2403ZM16.1338 39.4638C16.1406 39.6617 15.91 39.8259 15.6247 39.8294C15.3377 39.8358 15.1056 39.6756 15.1025 39.4809C15.1025 39.281 15.3278 39.1184 15.6148 39.1137C15.9001 39.1081 16.1338 39.2671 16.1338 39.4638ZM18.1129 39.3879C18.1471 39.5811 17.9488 39.7794 17.6654 39.8323C17.3868 39.8831 17.1289 39.7639 17.0935 39.5724C17.0589 39.3744 17.2608 39.1761 17.539 39.1248C17.8228 39.0756 18.0767 39.1916 18.1129 39.3879Z" fill="#161614"/>
</g>
<defs>
<clipPath id="clip0_46_156">
<rect width="48" height="48" fill="white"/>
</clipPath>
</defs>
</svg>
