<svg width="48" height="48" viewBox="0 0 48 48" fill="none" xmlns="http://www.w3.org/2000/svg">
<g clip-path="url(#clip0_46_153)">
<path d="M40.8982 40.899H33.7861V29.7609C33.7861 27.1049 33.7386 23.6858 30.087 23.6858C26.3828 23.6858 25.8161 26.5796 25.8161 29.5675V40.8982H18.704V17.9938H25.5316V21.124H25.6271C27.0193 18.7435 29.6079 17.3218 32.3636 17.4241C39.572 17.4241 40.9011 22.1656 40.9011 28.334L40.8982 40.899ZM10.6791 14.8629C8.39973 14.8634 6.55157 13.0158 6.55116 10.7364C6.55075 8.45689 8.39825 6.60869 10.6777 6.60828C12.9571 6.60787 14.8052 8.45541 14.8056 10.7349C14.8058 11.8295 14.3712 12.8794 13.5973 13.6536C12.8235 14.4277 11.7738 14.8627 10.6791 14.8629ZM14.2352 40.899H7.11568V17.9938H14.2352V40.899ZM44.4438 0.00351811H3.54185C1.60874 -0.0182975 0.0234705 1.5302 -0.00012207 3.46333V44.5359C0.0226628 46.4699 1.6078 48.02 3.54185 47.9997H44.4438C46.3817 48.0237 47.9731 46.4737 47.9999 44.5359V3.46037C47.9722 1.52342 46.3808 -0.0249914 44.4438 0.000243067" fill="#0A66C2"/>
</g>
<defs>
<clipPath id="clip0_46_153">
<rect width="48" height="48" fill="white"/>
</clipPath>
</defs>
</svg>
