<svg width="48" height="48" viewBox="0 0 48 48" fill="none" xmlns="http://www.w3.org/2000/svg">
<g clip-path="url(#clip0_46_149)">
<path d="M12.8178 41.1101L13.5935 41.498C16.8254 43.4371 20.4452 44.3421 24.0649 44.3421C35.4413 44.3421 44.7493 35.0341 44.7493 23.6577C44.7493 18.2281 42.5516 12.9277 38.6733 9.04941C34.7949 5.1711 29.6239 2.97339 24.0649 2.97339C12.6886 2.97339 3.3806 12.2813 3.50988 23.787C3.50988 27.6653 4.67337 31.4144 6.61253 34.6463L7.12963 35.4219L5.0612 43.0493L12.8178 41.1101Z" fill="#00E676"/>
<path d="M40.871 6.98097C36.4755 2.45627 30.3995 0 24.1942 0C11.008 0 0.407231 10.73 0.536508 23.787C0.536508 27.9239 1.7 31.9314 3.63916 35.5512L0.277954 47.8325L12.8178 44.6006C16.3083 46.5398 20.1866 47.4447 24.0649 47.4447C37.1219 47.4447 47.7227 36.7147 47.7227 23.6577C47.7227 17.3231 45.2664 11.3764 40.871 6.98097ZM24.1942 43.4371C20.7037 43.4371 17.2133 42.5322 14.2399 40.7223L13.4642 40.3345L5.96615 42.2736L7.9053 34.9048L7.3882 34.1292C1.7 24.9505 4.41482 12.7984 13.7228 7.11024C23.0307 1.42205 35.0535 4.13687 40.7417 13.4448C46.4299 22.7528 43.7151 34.7755 34.4071 40.4637C31.4337 42.4029 27.814 43.4371 24.1942 43.4371ZM35.5706 29.0874L34.1486 28.441C34.1486 28.441 32.0801 27.536 30.7874 26.8896C30.6581 26.8896 30.5288 26.7604 30.3995 26.7604C30.0117 26.7604 29.7531 26.8896 29.4946 27.0189C29.4946 27.0189 29.3653 27.1482 27.5554 29.2166C27.4262 29.4752 27.1676 29.6045 26.909 29.6045H26.7798C26.6505 29.6045 26.3919 29.4752 26.2627 29.3459L25.6163 29.0874C24.1942 28.441 22.9015 27.6653 21.8672 26.6311C21.6087 26.3725 21.2208 26.114 20.9623 25.8554C20.0574 24.9505 19.1524 23.9163 18.506 22.7528L18.3768 22.4942C18.2475 22.3649 18.2475 22.2357 18.1182 21.9771C18.1182 21.7186 18.1182 21.46 18.2475 21.3307C18.2475 21.3307 18.7646 20.6843 19.1524 20.2965C19.411 20.038 19.5402 19.6501 19.7988 19.3916C20.0574 19.0037 20.1866 18.4866 20.0574 18.0988C19.9281 17.4524 18.3768 13.9619 17.9889 13.1863C17.7304 12.7984 17.4718 12.6692 17.084 12.5399H16.6961C16.4376 12.5399 16.0498 12.5399 15.6619 12.5399C15.4034 12.5399 15.1448 12.6692 14.8863 12.6692L14.757 12.7984C14.4984 12.9277 14.2399 13.1863 13.9813 13.3155C13.7228 13.5741 13.5935 13.8327 13.3349 14.0912C12.43 15.2547 11.9129 16.6767 11.9129 18.0988C11.9129 19.133 12.1715 20.1672 12.5593 21.0722L12.6886 21.46C13.8521 23.9163 15.4034 26.114 17.4718 28.0531L17.9889 28.5702C18.3768 28.9581 18.7646 29.2166 19.0231 29.6045C21.738 31.9315 24.8406 33.6121 28.3311 34.517C28.7189 34.6463 29.236 34.6463 29.6239 34.7755C30.0117 34.7755 30.5288 34.7755 30.9166 34.7755C31.563 34.7755 32.3387 34.517 32.8558 34.2584C33.2436 33.9999 33.5022 33.9999 33.7607 33.7413L34.0193 33.4828C34.2778 33.2242 34.5364 33.0949 34.7949 32.8364C35.0535 32.5778 35.3121 32.3193 35.4413 32.0607C35.6999 31.5436 35.8292 30.8972 35.9584 30.2508C35.9584 29.9923 35.9584 29.6045 35.9584 29.3459C35.9584 29.3459 35.8292 29.2166 35.5706 29.0874Z" fill="white"/>
</g>
<defs>
<clipPath id="clip0_46_149">
<rect width="48" height="48" fill="white"/>
</clipPath>
</defs>
</svg>
