<svg width="634" height="152" viewBox="0 0 634 152" fill="none" xmlns="http://www.w3.org/2000/svg">
<path d="M235.252 18.126C238.378 18.002 246.003 17.752 249.88 16.876C249.754 18.502 249.504 23.502 249.504 33.001V37.251C253.004 34.375 255.881 32.875 259.381 32.875C261.152 32.8064 262.912 33.1961 264.488 34.0065C266.065 34.8169 267.406 36.0206 268.381 37.501C270.113 40.5887 270.977 44.0878 270.881 47.627C270.881 59.25 265.381 65.876 254.253 65.876C251.216 65.8093 248.231 65.0839 245.502 63.75C244.002 64.25 242.002 65.25 240.002 65.876L239.376 65.5C239.502 62.124 239.502 55.75 239.502 47.125V31.125C239.502 27.125 239.376 24.375 239.252 22.001C239.126 20.375 238.752 20.125 235.001 20.125L235.252 18.126ZM254.252 63.5C258.503 63.5 260.503 58.374 260.503 48.875C260.64 45.698 260.041 42.5323 258.753 39.625C258.382 38.8795 257.812 38.2513 257.106 37.8101C256.4 37.3688 255.586 37.1317 254.753 37.125C253.816 37.1717 252.905 37.4466 252.098 37.9259C251.292 38.4052 250.615 39.0743 250.126 39.875C249.502 40.751 249.252 41.501 249.252 51.375C249.252 59.501 249.628 59.751 250.128 60.751C250.471 61.5629 251.045 62.2562 251.778 62.7449C252.512 63.2336 253.373 63.4962 254.254 63.5H254.252ZM292.752 65.126C290.126 65.126 287.501 64.874 283.375 64.874C279 64.874 276.875 65.126 274.75 65.126V63C278.25 62.874 278.75 62.25 278.876 60.874C279 59.374 279.126 57 279.126 53.124V45.124C279.126 41.874 279.126 39.25 279 38.124C278.874 36.998 278.374 36.624 275.124 36.75V34.625C279.501 34.251 284.751 34.125 289.002 33.251C288.876 34.877 288.752 37.877 288.752 44.751V53.377C288.752 57.377 288.878 59.127 289.002 60.877C289.126 62.627 289.628 62.877 292.752 63.251V65.126ZM283.382 18.752C286.634 18.752 288.509 20.628 288.509 24.002C288.509 26.878 286.383 28.878 283.132 28.878C282.484 28.9088 281.836 28.8038 281.23 28.5696C280.625 28.3355 280.075 27.9774 279.616 27.5183C279.157 27.0592 278.799 26.5093 278.565 25.9037C278.331 25.2982 278.226 24.6504 278.257 24.002C278.215 23.3122 278.319 22.6213 278.56 21.9737C278.801 21.3261 279.175 20.7361 279.658 20.2417C280.141 19.7473 280.722 19.3594 281.363 19.1028C282.005 18.8462 282.693 18.7267 283.384 18.752H283.382ZM296.009 18.126C300.576 18.0475 305.132 17.6297 309.637 16.876C309.468 22.0406 309.384 27.2073 309.385 32.376V48.001C311.761 47.375 316.885 41.125 318.885 37.501C319.261 36.751 319.261 36.375 318.261 36.375L315.511 36.125V34.001C320.138 34.127 324.888 33.875 329.639 33.625V35.751C326.139 36.127 324.762 36.377 323.386 37.501C321.234 39.4331 319.229 41.5222 317.386 43.751C318.886 46.877 325.139 58.376 327.513 61.5C327.858 62.0011 328.328 62.4032 328.876 62.6663C329.425 62.9295 330.032 63.0445 330.639 63L332.387 63.126L332.263 65.25C327.625 65.1523 322.986 65.403 318.385 66C316.885 62.5 312.385 54 311.01 51.375C310.26 50.001 309.884 49.501 309.384 49.625C309.384 54.751 309.26 57.251 309.51 60.874C309.636 62.5 310.01 63 313.386 63.124V65.25C311.01 65.25 308.509 65 304.386 65C299.509 65 297.386 65.25 295.509 65.25V63.124C298.759 63 299.259 62.376 299.385 61.124C299.509 59.624 299.633 56.374 299.633 49.875V33.751C299.633 28.625 299.633 24.751 299.509 21.502C299.509 20.752 299.009 20.3766 298.009 20.376H295.883L296.009 18.126ZM265.882 95.998C263.756 102.748 259.631 105.998 252.754 105.998C246.877 105.998 243.127 104.372 240.503 100.872C238.503 98.248 237.503 94.372 237.503 89.998C237.503 80.372 243.38 72.998 254.131 72.998C260.631 72.998 265.382 75.998 265.382 80.874C265.382 84.248 262.632 85.622 260.382 85.622C259.512 85.6085 258.656 85.3949 257.882 84.998C257.504 84.7761 257.212 84.4337 257.053 84.0258C256.893 83.6179 256.875 83.1682 257.002 82.749C257.189 81.8836 257.315 81.0061 257.378 80.123C257.378 76.999 256.252 75.499 253.878 75.499C250.002 75.499 248.002 81.125 248.002 88.875C248.002 91.999 248.378 95.499 249.502 97.623C250.752 100.499 252.752 102.123 255.753 102.123C259.503 102.123 261.88 99.999 263.63 95.123L265.882 95.998ZM273.002 86.875C273.06 83.9526 272.934 81.0296 272.626 78.123C272.618 77.9394 272.572 77.7594 272.49 77.5947C272.409 77.43 272.294 77.2842 272.153 77.1666C272.011 77.0491 271.847 76.9624 271.67 76.9122C271.493 76.8619 271.308 76.8493 271.126 76.875H268.876V74.749C272.626 74.623 277.753 74.373 281.376 73.249L281.752 73.499C282.002 74.999 282.252 78.625 282.378 80.875H282.626C284.254 76.499 286.502 72.999 291.126 72.999C291.763 73.0091 292.391 73.1482 292.972 73.4079C293.553 73.6675 294.076 74.0423 294.509 74.5097C294.941 74.977 295.274 75.5271 295.488 76.1269C295.702 76.7266 295.792 77.3635 295.753 77.999C295.753 82.125 292.627 83.375 291.376 83.375C290.881 83.4504 290.375 83.3706 289.927 83.1463C289.479 82.9221 289.112 82.5646 288.876 82.123C288.252 80.749 287.876 79.999 286.628 79.999C285.252 79.999 284.502 81.249 283.628 83.249C283.162 84.7018 282.95 86.2241 283.002 87.749C283.002 94.875 283.002 98.874 283.128 100.624C283.254 102.374 283.876 102.872 288.877 102.998L288.753 105.124C285.253 104.998 282.126 104.872 278.502 104.872C274.752 104.872 272.002 104.998 268.875 105.124L269.249 102.998C272.249 102.872 272.999 102.498 272.999 101.248C273.125 99.498 273.249 96.122 273.249 92.248V86.873H273.002V86.875ZM315.383 81.125C315.383 77.373 314.131 75.373 311.631 75.373C308.757 75.373 307.383 76.999 307.383 79.999C307.398 80.7966 307.481 81.5915 307.631 82.375C307.711 82.7263 307.682 83.0936 307.548 83.4282C307.415 83.7628 307.183 84.049 306.883 84.249C305.841 84.937 304.631 85.3264 303.383 85.375C301.007 85.375 299.006 84.247 299.006 81.499C299.006 77.499 304.883 72.999 313.134 72.999C319.883 72.999 322.883 75.749 324.009 77.499C324.657 78.5059 325.004 79.6773 325.009 80.875V99.248C325.009 101.374 325.635 101.874 326.385 101.874C327.385 101.874 328.509 100.248 329.009 97.498L331.135 98.498C330.009 103.874 326.758 106.124 322.258 106.124C318.382 106.124 316.258 104.498 315.631 101.248C312.631 104.248 309.506 106.124 306.256 106.124C301.005 106.124 297.505 102.624 297.505 96.872C297.505 93.372 299.005 91.372 301.631 90.248C305.879 88.372 312.256 86.498 315.381 84.248V81.123L315.383 81.125ZM307.511 94.998C307.511 97.748 308.637 100.748 311.387 100.748C313.387 100.748 314.261 99.498 314.887 98.248C315.175 97.2751 315.301 96.2617 315.261 95.248V86.748C313.885 87.624 311.761 88.624 310.134 89.624C308.635 90.625 307.511 91.873 307.511 94.998ZM332.264 74.125L336.264 74.249V72.249C336.39 66.999 337.64 63.123 340.39 60.374C341.572 59.1557 342.992 58.1939 344.562 57.5488C346.132 56.9036 347.818 56.5888 349.515 56.624C354.642 56.624 357.392 59.124 357.392 62.374C357.392 64.75 355.392 66.374 352.639 66.374C352.305 66.3941 351.971 66.3432 351.659 66.2247C351.347 66.1062 351.063 65.9227 350.827 65.6865C350.59 65.4502 350.407 65.1664 350.288 64.854C350.17 64.5416 350.119 64.2075 350.139 63.874C350.139 61.25 349.765 59.126 347.891 59.126C346.639 59.126 345.891 60.25 345.639 62.376C345.391 64.376 345.765 68.126 346.015 73.999H352.142L351.766 76.499L346.015 76.875C345.889 79.249 345.889 83.375 345.889 88.248C345.889 92.874 345.889 96.998 346.015 100.248C346.141 101.874 346.391 102.498 347.765 102.624C348.885 102.764 350.012 102.847 351.141 102.872L350.887 104.998C348.513 104.998 344.762 104.748 341.512 104.748C338.136 104.748 334.135 104.998 331.885 104.998L332.011 102.872C335.261 102.748 335.761 102.372 335.887 100.998C336.135 98.872 336.135 95.622 336.135 91.248V76.749L331.887 76.499L332.261 74.123L332.264 74.125Z" fill="#FEC63E"/>
<path d="M375.127 74.1202L374.875 76.4932L367.248 76.9932C367.248 79.6192 367.122 83.4932 367.122 88.7442C367.122 94.2442 367.122 97.9952 367.374 100.244C367.498 101.87 368.122 102.62 369.374 102.62C371.998 102.62 373.623 99.7442 374.249 97.1202H375.249L376.127 99.9932C374.627 103.619 370.874 106.12 365.374 106.12C362.374 106.12 359.749 105.12 358.499 103.62C357.571 102.312 357.129 100.722 357.248 99.1232C357.248 93.9932 357.498 82.4932 357.498 76.9932L353.498 76.6172L353.748 74.2432H357.498C357.624 71.8672 357.624 69.1162 357.624 66.6162C360.909 65.872 364.068 64.6514 367 62.9932L367.75 63.1192C367.531 66.8238 367.406 70.5322 367.374 74.2442H375.127V74.1182V74.1202Z" fill="#FEC63E"/>
<path d="M407 9.919V113.081H227V9.919H407ZM417 0H217V123H417V0Z" fill="#FEC63E"/>
<path d="M3 69H0V152H3V69Z" fill="black"/>
<path d="M216 69H0V72H216V69Z" fill="black"/>
<path d="M634 69H631V152H634V69Z" fill="black"/>
<path d="M632 69H416V72H632V69Z" fill="black"/>
<path d="M318 124H315V152H318V124Z" fill="black"/>
</svg>
